<?xml version="1.0" encoding="UTF-8"?>
<svg viewBox="0 0 400 400" xmlns="http://www.w3.org/2000/svg">
    <defs>
        <linearGradient id="skyGradient" x1="0%" y1="0%" x2="0%" y2="100%">
            <stop offset="0%" style="stop-color:#87CEEB;stop-opacity:1" />
            <stop offset="100%" style="stop-color:#FFE4B5;stop-opacity:1" />
        </linearGradient>

        <!-- Shadow filter -->
        <filter id="shadow">
            <feGaussianBlur in="SourceAlpha" stdDeviation="3"/>
            <feOffset dx="2" dy="2" result="offsetblur"/>
            <feComponentTransfer>
                <feFuncA type="linear" slope="0.3"/>
            </feComponentTransfer>
            <feMerge>
                <feMergeNode/>
                <feMergeNode in="SourceGraphic"/>
            </feMerge>
        </filter>
    </defs>

    <!-- Background -->
    <rect width="400" height="400" fill="url(#skyGradient)"/>

    <!-- Sun/moon blend (representing inner light) -->
    <circle cx="80" cy="80" r="40" fill="#FFD700" opacity="0.8"/>
    <circle cx="90" cy="70" r="35" fill="#FFF8DC" opacity="0.6"/>

    <!-- Bridge -->
    <g filter="url(#shadow)">
        <!-- Bridge deck -->
        <path d="M 50 250 Q 200 200 350 250" stroke="#8B4513" stroke-width="20" fill="none"/>

        <!-- Bridge supports -->
        <line x1="100" y1="235" x2="100" y2="300" stroke="#8B4513" stroke-width="8"/>
        <line x1="200" y1="215" x2="200" y2="300" stroke="#8B4513" stroke-width="8"/>
        <line x1="300" y1="235" x2="300" y2="300" stroke="#8B4513" stroke-width="8"/>

        <!-- Bridge railings -->
        <path d="M 50 250 Q 200 200 350 250" stroke="#A0522D" stroke-width="3" fill="none" transform="translate(0,-15)"/>
        <path d="M 50 250 Q 200 200 350 250" stroke="#A0522D" stroke-width="3" fill="none" transform="translate(0,-30)"/>
    </g>

    <!-- Silhouette walking on bridge -->
    <g transform="translate(180, 190)">
        <!-- Body -->
        <ellipse cx="0" cy="10" rx="8" ry="15" fill="#4A5568"/>
        <!-- Head -->
        <circle cx="0" cy="-5" r="8" fill="#4A5568"/>
        <!-- Legs -->
        <line x1="-3" y1="20" x2="-5" y2="35" stroke="#4A5568" stroke-width="4" stroke-linecap="round"/>
        <line x1="3" y1="20" x2="5" y2="35" stroke="#4A5568" stroke-width="4" stroke-linecap="round"/>
        <!-- Arms -->
        <line x1="-6" y1="8" x2="-10" y2="18" stroke="#4A5568" stroke-width="3" stroke-linecap="round"/>
        <line x1="6" y1="8" x2="10" y2="18" stroke="#4A5568" stroke-width="3" stroke-linecap="round"/>
    </g>

    <!-- Reflection/inner self (lighter silhouette) -->
    <g transform="translate(220, 190)" opacity="0.4">
        <!-- Body -->
        <ellipse cx="0" cy="10" rx="8" ry="15" fill="#718096"/>
        <!-- Head -->
        <circle cx="0" cy="-5" r="8" fill="#718096"/>
        <!-- Legs -->
        <line x1="-3" y1="20" x2="-5" y2="35" stroke="#718096" stroke-width="4" stroke-linecap="round"/>
        <line x1="3" y1="20" x2="5" y2="35" stroke="#718096" stroke-width="4" stroke-linecap="round"/>
        <!-- Arms -->
        <line x1="-6" y1="8" x2="-10" y2="18" stroke="#718096" stroke-width="3" stroke-linecap="round"/>
        <line x1="6" y1="8" x2="10" y2="18" stroke="#718096" stroke-width="3" stroke-linecap="round"/>
    </g>

    <!-- App name -->
    <text x="200" y="350" font-family="Arial, sans-serif" font-size="36" font-weight="bold" text-anchor="middle" fill="#2C3E50">
        Мост кон себе
    </text>

    <!-- Subtle heart symbols floating -->
    <g opacity="0.3">
        <path d="M 320 120 C 320 112, 312 108, 308 112 C 304 108, 296 112, 296 120 C 296 128, 308 140, 308 140 C 308 140, 320 128, 320 120 Z" fill="#FF69B4"/>
        <path d="M 100 150 C 100 142, 92 138, 88 142 C 84 138, 76 142, 76 150 C 76 158, 88 170, 88 170 C 88 170, 100 158, 100 150 Z" fill="#FF69B4" transform="scale(0.8)"/>
    </g>
</svg>